<svg width="24" height="24" viewBox="0 0 24 24" fill="none" xmlns="http://www.w3.org/2000/svg">
<path fill-rule="evenodd" clip-rule="evenodd" d="M12.9697 4.71967C13.2626 4.42678 13.7374 4.42678 14.0303 4.71967L20.7803 11.4697C20.8287 11.5181 20.866 11.5731 20.8984 11.6298C20.914 11.657 20.9303 11.6837 20.9424 11.7128C20.9631 11.7628 20.9779 11.8145 20.9873 11.8671C20.995 11.9103 21 11.9546 21 11.9999C21 12.045 20.9949 12.0889 20.9873 12.1318C20.9779 12.1844 20.963 12.236 20.9424 12.2861C20.9303 12.3152 20.9139 12.3419 20.8984 12.3691C20.866 12.426 20.8289 12.4816 20.7803 12.5302L14.0303 19.2802C13.7374 19.5731 13.2626 19.5731 12.9697 19.2802C12.6768 18.9873 12.6768 18.5126 12.9697 18.2197L18.4395 12.7499H3.75C3.33579 12.7499 3 12.4142 3 11.9999C3 11.5857 3.33579 11.2499 3.75 11.2499H18.4395L12.9697 5.78022C12.6768 5.48732 12.6768 5.01256 12.9697 4.71967Z" fill="#F26440"/>
</svg>
