<svg width="24" height="24" viewBox="0 0 24 24" fill="none" xmlns="http://www.w3.org/2000/svg">
<path d="M11.9424 20.9893L12.375 21C12.1697 21 11.9663 20.9897 11.7646 20.9756C11.8238 20.9797 11.8829 20.9863 11.9424 20.9893ZM10.6807 20.832C6.72869 20.0447 3.75 16.5584 3.75 12.375C3.75 7.61155 7.61155 3.75 12.375 3.75C17.1384 3.75 21 7.61155 21 12.375C21 16.7583 17.7296 20.3741 13.4961 20.9238V14.2656H15.374L15.623 11.9209H13.4961L13.499 10.7471C13.499 10.1355 13.5572 9.80762 14.4355 9.80762H15.6094V7.46289H13.7314C11.4749 7.46289 10.6807 8.60064 10.6807 10.5137V11.9209H9.27441V14.2656H10.6807V20.832ZM11.0801 20.9023C10.9492 20.8826 10.8193 20.8595 10.6904 20.834C10.8193 20.8595 10.9492 20.8826 11.0801 20.9023Z" fill="white"/>
</svg>
