<svg width="18" height="18" viewBox="0 0 18 18" fill="none" xmlns="http://www.w3.org/2000/svg">
<g clip-path="url(#clip0_1662_414)">
<path d="M5.75046 8.625C5.75046 7.03725 7.03725 5.74977 8.625 5.74977C10.2128 5.74977 11.5002 7.03725 11.5002 8.625C11.5002 10.2128 10.2128 11.5002 8.625 11.5002C7.03725 11.5002 5.75046 10.2128 5.75046 8.625ZM4.19615 8.625C4.19615 11.0711 6.17893 13.0538 8.625 13.0538C11.0711 13.0538 13.0538 11.0711 13.0538 8.625C13.0538 6.17893 11.0711 4.19615 8.625 4.19615C6.17893 4.19615 4.19615 6.17893 4.19615 8.625ZM12.1941 4.02059C12.1941 4.59187 12.6574 5.05587 13.2294 5.05587C13.8007 5.05587 14.2647 4.59187 14.2647 4.02059C14.2647 3.4493 13.8014 2.98601 13.2294 2.98601C12.6574 2.98601 12.1941 3.4493 12.1941 4.02059ZM5.14017 15.6455C4.29926 15.6072 3.84224 15.4672 3.53848 15.3487C3.13579 15.192 2.84876 15.0053 2.5464 14.7036C2.24473 14.4019 2.05732 14.1149 1.90126 13.7122C1.78283 13.4085 1.64279 12.9514 1.60447 12.1105C1.56267 11.2014 1.55431 10.9283 1.55431 8.625C1.55431 6.32175 1.56337 6.04934 1.60447 5.13947C1.64279 4.29857 1.78352 3.84224 1.90126 3.53778C2.05802 3.1351 2.24473 2.84806 2.5464 2.5457C2.84806 2.24403 3.1351 2.05662 3.53848 1.90057C3.84224 1.78213 4.29926 1.64209 5.14017 1.60378C6.04934 1.56197 6.32245 1.55361 8.625 1.55361C10.9283 1.55361 11.2007 1.56267 12.1105 1.60378C12.9514 1.64209 13.4078 1.78282 13.7122 1.90057C14.1149 2.05662 14.4019 2.24403 14.7043 2.5457C15.006 2.84736 15.1927 3.1351 15.3494 3.53778C15.4679 3.84154 15.6079 4.29857 15.6462 5.13947C15.688 6.04934 15.6964 6.32175 15.6964 8.625C15.6964 10.9276 15.688 11.2007 15.6462 12.1105C15.6079 12.9514 15.4672 13.4085 15.3494 13.7122C15.1927 14.1149 15.006 14.4019 14.7043 14.7036C14.4026 15.0053 14.1149 15.192 13.7122 15.3487C13.4085 15.4672 12.9514 15.6072 12.1105 15.6455C11.2014 15.6873 10.9283 15.6957 8.625 15.6957C6.32245 15.6957 6.04934 15.6873 5.14017 15.6455ZM5.0691 0.0522516C4.15087 0.0940529 3.52385 0.239661 2.97556 0.452847C2.40845 0.673001 1.92774 0.968397 1.44772 1.44772C0.968397 1.92704 0.673001 2.40775 0.452847 2.97556C0.239661 3.52385 0.0940529 4.15087 0.0522516 5.0691C0.00975364 5.98873 0 6.28273 0 8.625C0 10.9673 0.00975364 11.2613 0.0522516 12.1809C0.0940529 13.0991 0.239661 13.7262 0.452847 14.2744C0.673001 14.8415 0.9677 15.323 1.44772 15.8023C1.92704 16.2816 2.40775 16.5763 2.97556 16.7972C3.52455 17.0103 4.15087 17.1559 5.0691 17.1977C5.98943 17.2395 6.28273 17.25 8.625 17.25C10.968 17.25 11.2613 17.2402 12.1809 17.1977C13.0991 17.1559 13.7262 17.0103 14.2744 16.7972C14.8415 16.5763 15.3223 16.2816 15.8023 15.8023C16.2816 15.323 16.5763 14.8415 16.7972 14.2744C17.0103 13.7262 17.1566 13.0991 17.1978 12.1809C17.2395 11.2606 17.2493 10.9673 17.2493 8.625C17.2493 6.28273 17.2395 5.98873 17.1978 5.0691C17.1559 4.15087 17.0103 3.52385 16.7972 2.97556C16.5763 2.40845 16.2816 1.92774 15.8023 1.44772C15.323 0.968397 14.8415 0.673001 14.2751 0.452847C13.7262 0.239661 13.0991 0.0933562 12.1816 0.0522516C11.262 0.0104503 10.968 0 8.6257 0C6.28273 0 5.98943 0.00975364 5.0691 0.0522516Z" fill="white"/>
</g>
<defs>
<clipPath id="clip0_1662_414">
<rect width="17.25" height="17.25" fill="white"/>
</clipPath>
</defs>
</svg>
