<svg width="18" height="17" viewBox="0 0 18 17" fill="none" xmlns="http://www.w3.org/2000/svg">
<g clip-path="url(#clip0_1662_422)">
<path d="M0 1.91482C0 1.35979 0.194262 0.901895 0.58277 0.541143C0.971278 0.180376 1.47636 0 2.09797 0C2.7085 0 3.20246 0.177595 3.57987 0.532818C3.96838 0.899131 4.16264 1.37644 4.16264 1.96477C4.16264 2.49759 3.97394 2.94159 3.59652 3.29681C3.20802 3.66313 2.69739 3.84628 2.06467 3.84628H2.04802C1.43749 3.84628 0.943538 3.66313 0.56612 3.29681C0.188701 2.9305 0 2.46983 0 1.91482ZM0.216458 16.4841V5.36148H3.91289V16.4841H0.216458ZM5.96091 16.4841H9.65734V10.2734C9.65734 9.88488 9.70174 9.58517 9.79054 9.37427C9.94594 8.99685 10.1818 8.67771 10.4982 8.41686C10.8146 8.156 11.2114 8.02557 11.6887 8.02557C12.932 8.02557 13.5536 8.86365 13.5536 10.5398V16.4841H17.25V10.1069C17.25 8.46403 16.8615 7.21802 16.0845 6.36884C15.3074 5.51966 14.2807 5.09507 13.0041 5.09507C11.5722 5.09507 10.4566 5.71114 9.65734 6.94329V6.97659H9.64069L9.65734 6.94329V5.36148H5.96091C5.9831 5.71669 5.99421 6.82117 5.99421 8.67495C5.99421 10.5287 5.9831 13.1317 5.96091 16.4841Z" fill="white"/>
</g>
<defs>
<clipPath id="clip0_1662_422">
<rect width="17.25" height="16.4841" fill="white"/>
</clipPath>
</defs>
</svg>
