<svg width="32" height="32" viewBox="0 0 32 32" fill="none" xmlns="http://www.w3.org/2000/svg">
<path fill-rule="evenodd" clip-rule="evenodd" d="M17.293 6.29289C17.6835 5.90237 18.3165 5.90237 18.707 6.29289L27.707 15.2929C27.7548 15.3407 27.7976 15.3935 27.835 15.4501C27.8597 15.4876 27.8812 15.5265 27.9004 15.5663C27.9222 15.6115 27.9412 15.6583 27.9561 15.707C27.9623 15.7272 27.9668 15.7479 27.9717 15.7685C27.9893 15.8429 28 15.9201 28 15.9999C28 16.0563 27.9933 16.1112 27.9844 16.165C27.9772 16.2077 27.9688 16.2502 27.9561 16.2919C27.9412 16.3406 27.9222 16.3873 27.9004 16.4325C27.8936 16.4467 27.8864 16.4606 27.8789 16.4745C27.851 16.5261 27.8184 16.5744 27.7822 16.62C27.7586 16.6497 27.7345 16.6795 27.707 16.707L18.707 25.707C18.3165 26.0975 17.6835 26.0975 17.293 25.707C16.9024 25.3164 16.9024 24.6834 17.293 24.2929L24.5859 16.9999H5C4.44772 16.9999 4 16.5522 4 15.9999C4 15.4476 4.44772 14.9999 5 14.9999H24.5859L17.293 7.70696C16.9024 7.31643 16.9024 6.68342 17.293 6.29289Z" fill="url(#paint0_linear_1662_478)"/>
<defs>
<linearGradient id="paint0_linear_1662_478" x1="-1.78722" y1="3.91667" x2="35.7536" y2="7.79636" gradientUnits="userSpaceOnUse">
<stop stop-color="#F26440"/>
<stop offset="1" stop-color="#EF7D60"/>
</linearGradient>
</defs>
</svg>
