<svg width="32" height="32" viewBox="0 0 32 32" fill="none" xmlns="http://www.w3.org/2000/svg">
<g opacity="0.4">
<path fill-rule="evenodd" clip-rule="evenodd" d="M14.707 25.7071C14.3165 26.0976 13.6835 26.0976 13.293 25.7071L4.29297 16.7071C4.24516 16.6593 4.20242 16.6065 4.16504 16.5499C4.1403 16.5124 4.11877 16.4735 4.09961 16.4337C4.07781 16.3885 4.05884 16.3417 4.04395 16.293C4.03775 16.2728 4.0332 16.2521 4.02832 16.2315C4.01067 16.1571 4 16.0799 4 16.0001C4 15.9437 4.00667 15.8888 4.01562 15.835C4.02275 15.7923 4.03125 15.7498 4.04395 15.7081C4.0588 15.6594 4.07784 15.6127 4.09961 15.5675C4.10641 15.5533 4.11359 15.5394 4.12109 15.5255C4.149 15.4739 4.18157 15.4256 4.21777 15.38C4.24137 15.3503 4.26551 15.3205 4.29297 15.293L13.293 6.29305C13.6835 5.90252 14.3165 5.90252 14.707 6.29305C15.0976 6.68357 15.0976 7.31658 14.707 7.70711L7.41406 15.0001L27 15.0001C27.5523 15.0001 28 15.4478 28 16.0001C28 16.5524 27.5523 17.0001 27 17.0001H7.41406L14.707 24.293C15.0976 24.6836 15.0976 25.3166 14.707 25.7071Z" fill="#0F3141"/>
</g>
</svg>
