<svg width="48" height="48" viewBox="0 0 48 48" fill="none" xmlns="http://www.w3.org/2000/svg">
<path d="M22.5 11C28.8513 11 34 16.1487 34 22.5C34 25.3151 32.987 27.8926 31.3076 29.8916L36.707 35.292C37.0976 35.6825 37.0976 36.3155 36.707 36.7061C36.3165 37.0965 35.6835 37.0966 35.293 36.7061L29.8926 31.3057C27.8934 32.9858 25.3158 34 22.5 34C16.1487 34 11 28.8513 11 22.5C11 16.1487 16.1487 11 22.5 11ZM22.5 13C17.2533 13 13 17.2533 13 22.5C13 27.7467 17.2533 32 22.5 32C25.1204 32 27.4922 30.9384 29.2109 29.2227C29.213 29.2205 29.2157 29.2189 29.2178 29.2168C29.2197 29.2149 29.2217 29.2128 29.2236 29.2109C30.9391 27.4923 32 25.1201 32 22.5C32 17.2533 27.7467 13 22.5 13Z" fill="#0F3141"/>
</svg>
