<svg width="47" height="47" viewBox="0 0 47 47" fill="none" xmlns="http://www.w3.org/2000/svg">
<path d="M13.7077 43.0837H7.83268C6.79392 43.0837 5.7977 42.671 5.06318 41.9365C4.32866 41.202 3.91602 40.2058 3.91602 39.167V25.4587C3.91602 24.4199 4.32866 23.4237 5.06318 22.6892C5.7977 21.9546 6.79392 21.542 7.83268 21.542H13.7077M27.416 17.6253V9.79199C27.416 8.23385 26.797 6.73952 25.6953 5.63774C24.5935 4.53596 23.0992 3.91699 21.541 3.91699L13.7077 21.542V43.0837H35.7977C36.7422 43.0943 37.6588 42.7633 38.3786 42.1515C39.0983 41.5397 39.5727 40.6884 39.7144 39.7545L42.4168 22.1295C42.5021 21.5681 42.4642 20.995 42.3059 20.4497C42.1476 19.9045 41.8726 19.4002 41.5001 18.9717C41.1275 18.5433 40.6663 18.2009 40.1483 17.9685C39.6303 17.736 39.0679 17.6189 38.5002 17.6253H27.416Z" stroke="#F26440" stroke-width="3" stroke-linecap="round" stroke-linejoin="round"/>
</svg>
